<?xml version="1.0" ?><svg enable-background="new 0 0 64 64" version="1.1" viewBox="0 0 64 64" xml:space="preserve" xmlns="http://www.w3.org/2000/svg" xmlns:xlink="http://www.w3.org/1999/xlink"><g id="row_4"/><g id="row_3"/><g id="row_2"/><g id="row_1"><g id="speed"><path d="M33.4,4.6C32.6,4.2,31.4,4,30,4c-1.4,0-2.6,0.2-3.4,0.6c-0.8,0.4-1.2,0.9-1.2,1.4c0,0.6,0.5,1,1.1,1h7    c0.6,0,1.1-0.4,1.1-1C34.6,5.5,34.1,5,33.4,4.6z" fill="#FFCA28"/><rect fill="#FF8F00" height="2.6" width="6" x="27" y="6.5"/><path d="M11.5,34c0-5.1,2.1-9.7,5.4-13.1l12,12c-0.6,0.6-0.6,1.5,0,2.1s1.5,0.6,2.1,0s0.6-1.5,0-2.1l12-12    c3.3,3.3,5.4,8,5.4,13.1c0,10.2-8.3,18.5-18.5,18.5S11.5,44.2,11.5,34z" fill="#AEEA00"/><path d="M9,34c0-11.6,9.4-21,21-21s21,9.4,21,21s-9.4,21-21,21S9,45.6,9,34z M11.5,34c0,10.2,8.3,18.5,18.5,18.5    S48.5,44.2,48.5,34c0-5.1-2.1-9.7-5.4-13.1c-3.3-3.4-8-5.4-13.1-5.4s-9.7,2.1-13.1,5.4C13.6,24.3,11.5,28.9,11.5,34z" fill="#827717"/><path d="M51.2,16.3l-3.5-3.5l-0.4-0.4l-1.9,1.9l0.7,0.7l0,0c1,0.9,2,1.8,2.8,2.8l0,0l0.7,0.7l1.9-1.9L51.2,16.3z" fill="#FF8F00"/><path d="M43.1,20.9c-3.3-3.3-8-5.4-13.1-5.4s-9.7,2.1-13.1,5.4l12,12c-0.6,0.6-0.6,1.5,0,2.1    c0.6,0.6,1.5,0.6,2.1,0c0.6-0.6,0.6-1.5,0-2.1L43.1,20.9z" fill="#FBE9E7"/><path d="M50.1,17.5c-1.1-1.3-2.3-2.6-3.7-3.7c-4-3.2-8.8-5.2-13.9-5.7c-1.7-0.2-3.5-0.2-5.2,0    C14.1,9.5,4,20.6,4,34c0,14.3,11.7,26,26,26s26-11.7,26-26C56,28,53.9,22.2,50.1,17.5z M30,54c-11,0-20-9-20-20s9-20,20-20    s20,9,20,20S41,54,30,54z" fill="#FFCA28"/><path d="M57.2,6.8c3.4,3.4,4.3,7.7,2.1,9.9c-1.5,1.5-3.9,1.6-6.4,0.4c0.3-0.1,0.5-0.2,0.7-0.4    c0.4-0.4,0.5-0.8,0.4-1.3h0c1.6,0.7,3,0.7,3.8-0.1c1.4-1.4,0.4-4.5-2.1-7.1c-2.5-2.5-5.7-3.5-7.1-2.1c-0.8,0.8-0.8,2.2-0.1,3.8v0    c-0.1,0-0.1,0-0.2,0c-0.4,0-0.8,0.1-1.1,0.4c-0.2,0.2-0.3,0.5-0.4,0.7c-1.2-2.5-1.1-4.9,0.4-6.4C49.5,2.4,53.8,3.3,57.2,6.8z" fill="#FFD54F"/><path d="M30,53c-10.5,0-19-8.5-19-19c0-5.1,2-9.9,5.6-13.4C20.1,17,24.9,15,30,15s9.9,2,13.4,5.6    C47,24.1,49,28.9,49,34C49,44.5,40.5,53,30,53z M30,16c-4.8,0-9.3,1.9-12.7,5.3C13.9,24.7,12,29.2,12,34c0,9.9,8.1,18,18,18    s18-8.1,18-18c0-4.8-1.9-9.3-5.3-12.7C39.3,17.9,34.8,16,30,16z" fill="#C0CA33"/><path d="M35.4,38c-0.2-0.3-0.6-0.3-0.9-0.2l-2.3-2.3c0.6-1,0.5-2.3-0.3-3.1c-0.8-0.8-2.2-0.9-3.1-0.3l-9.3-9.3    c0.3-0.6,0.2-1.2-0.3-1.7c-0.6-0.6-1.6-0.6-2.1,0c-0.6,0.6-0.6,1.5,0,2.1c0.3,0.3,0.7,0.4,1.1,0.4c0.2,0,0.4-0.1,0.6-0.2l9.3,9.3    c-0.6,1-0.5,2.3,0.3,3.1c0.5,0.5,1.1,0.7,1.8,0.7c0.5,0,1-0.1,1.4-0.4l2.3,2.3c0,0.1-0.1,0.2-0.1,0.2c0,0.3,0.1,0.5,0.3,0.7    c0.2,0.2,0.4,0.3,0.7,0.3c0.3,0,0.5-0.1,0.7-0.3c0.2-0.2,0.3-0.4,0.3-0.7C35.7,38.4,35.5,38.1,35.4,38z M17.6,22.3    c-0.2-0.2-0.2-0.5,0-0.7c0.1-0.1,0.2-0.1,0.4-0.1c0.1,0,0.3,0.1,0.4,0.1c0.2,0.2,0.2,0.5,0,0.7C18.2,22.5,17.8,22.5,17.6,22.3z     M30.4,34.4c-0.2,0.2-0.5,0.2-0.7,0c-0.2-0.2-0.2-0.5,0-0.7c0.1-0.1,0.2-0.1,0.4-0.1s0.3,0.1,0.4,0.1    C30.6,33.8,30.6,34.2,30.4,34.4z" fill="#D50000"/><path d="M54.8,9.2c-0.7-0.6-1.5-1-2.3-1.1c-0.9-0.1-1.7,0.2-2.3,0.8c-0.5,0.5-0.7,1.1-0.8,1.9l3.9,3.9    c0.7,0,1.3-0.3,1.8-0.8c0.6-0.6,0.9-1.4,0.8-2.3C55.8,10.7,55.4,9.9,54.8,9.2z" fill="#FFB300"/><path d="M54.6,15.3c-0.1-0.4-0.3-0.8-0.6-1.1l-4.2-4.2c-0.3-0.3-0.7-0.5-1.1-0.5C48.1,9.3,47.4,9.5,47,10    c-0.3,0.3-0.4,0.6-0.5,1c-0.1,0.7,0.1,1.4,0.5,1.9l4.3,4.2c0.4,0.4,0.9,0.6,1.4,0.6c0.2,0,0.3,0,0.4-0.1c0.4-0.1,0.7-0.3,1-0.5    C54.5,16.6,54.7,16,54.6,15.3z" fill="#FFCA28"/><path d="M19.9,31.3c1.5-5.6,7.3-8.9,12.9-7.4c4.3,1.1,5.9-5.1,1.7-6.3c-9.1-2.4-18.4,3-20.8,12    C12.5,33.5,18.8,35.2,19.9,31.3z" fill="#FFFFFF" opacity="0.5"/><g><path d="M45.5,49.5c0.9-0.9,1.7-1.8,2.4-2.8c1.4-1.1,2.7,0.5,1.3,1.6c-0.7,0.9-1.4,1.8-2.3,2.6     c-1.1,1.1-2.3,2.1-3.5,2.9c-1.5,0.7-2.4-1.1-0.9-1.8C43.6,51.3,44.6,50.5,45.5,49.5z" fill="#FFFFFF"/><path d="M21.6,13.7c1.3-0.9,0.1-2.6-1.2-1.7c-3.9,1.7-7.3,4.4-9.8,7.8c-1,1.3,0.6,2.5,1.6,1.2     C14.6,17.8,17.9,15.2,21.6,13.7z" fill="#FFFFFF"/></g></g></g></svg>